<?xml version="1.0" encoding="UTF-8" standalone="no"?>
<svg
   version="1.1"
   id="bg"
   width="10"
   height="20"
   viewBox="0 0 10 20"
   xmlns="http://www.w3.org/2000/svg"
   xmlnsSvg="http://www.w3.org/2000/svg">
  <defs
     id="defs61" />
  <g
     id="t0">
    <rect
       style="fill-opacity:0.004"
       id="1"
       width="1"
       height="1"
       x="0"
       y="0" />
    <rect
       style="fill:#00aff2;fill-opacity:0.31"
       id="2"
       width="1"
       height="1"
       x="0"
       y="1" />
    <rect
       style="fill:#16b2e5;fill-opacity:0.5"
       id="3"
       width="1"
       height="1"
       x="0"
       y="2" />
    <rect
       style="fill:#03b1ee;fill-opacity:0.36"
       id="4"
       width="1"
       height="1"
       x="0"
       y="3" />
    <rect
       style="fill:#82d0b2;fill-opacity:0.17"
       id="5"
       width="1"
       height="1"
       x="1"
       y="0" />
    <rect
       style="fill:#76c57c;fill-opacity:0.75"
       id="6"
       width="1"
       height="1"
       x="1"
       y="1" />
    <rect
       style="fill:#72c253;fill-opacity:0.82"
       id="7"
       width="1"
       height="1"
       x="1"
       y="2" />
    <rect
       style="fill:#4cb882;fill-opacity:0.71"
       id="8"
       width="1"
       height="1"
       x="1"
       y="3" />
    <rect
       style="fill:#d3e924;fill-opacity:0.5"
       id="9"
       width="1"
       height="1"
       x="2"
       y="0" />
    <rect
       style="fill:#89cc38;fill-opacity:0.88"
       id="10"
       width="1"
       height="1"
       x="2"
       y="1" />
    <rect
       style="fill:#89cc38;fill-opacity:0.88"
       id="11"
       width="1"
       height="1"
       x="2"
       y="2" />
    <rect
       style="fill:#76c44e;fill-opacity:0.82"
       id="12"
       width="1"
       height="1"
       x="2"
       y="3" />
    <rect
       style="fill:#eef506;fill-opacity:0.52"
       id="13"
       width="1"
       height="1"
       x="3"
       y="0" />
    <rect
       style="fill:#97d02b;fill-opacity:0.8"
       id="14"
       width="1"
       height="1"
       x="3"
       y="1" />
    <rect
       style="fill:#8ecd34;fill-opacity:0.84"
       id="15"
       width="1"
       height="1"
       x="3"
       y="2" />
    <rect
       style="fill:#8bc932;fill-opacity:0.75"
       id="16"
       width="1"
       height="1"
       x="3"
       y="3" />
    <rect
       style="fill:#ffff00;fill-opacity:0.23"
       id="17"
       width="1"
       height="1"
       x="4"
       y="0" />
    <rect
       style="fill:#deee0c;fill-opacity:0.57"
       id="18"
       width="1"
       height="1"
       x="4"
       y="1" />
    <rect
       style="fill:#bcdb16;fill-opacity:0.64"
       id="19"
       width="1"
       height="1"
       x="4"
       y="2" />
    <rect
       style="fill:#9ccd1c;fill-opacity:0.28"
       id="20"
       width="1"
       height="1"
       x="4"
       y="3" />
  </g>
  <g
     id="t1"
     transform="translate(5)">
    <rect
       style="fill-opacity:0.004"
       id="rect24"
       width="1"
       height="1"
       x="0"
       y="0" />
    <rect
       style="fill:#00aff2;fill-opacity:0.31"
       id="rect26"
       width="1"
       height="1"
       x="0"
       y="1" />
    <rect
       style="fill:#16b2e5;fill-opacity:0.5"
       id="rect28"
       width="1"
       height="1"
       x="0"
       y="2" />
    <rect
       style="fill:#03b1ee;fill-opacity:0.36"
       id="rect30"
       width="1"
       height="1"
       x="0"
       y="3" />
    <rect
       style="fill:#82d0b2;fill-opacity:0.17"
       id="rect32"
       width="1"
       height="1"
       x="1"
       y="0" />
    <rect
       style="fill:#76c57c;fill-opacity:0.75"
       id="rect34"
       width="1"
       height="1"
       x="1"
       y="1" />
    <rect
       style="fill:#72c253;fill-opacity:0.82"
       id="rect36"
       width="1"
       height="1"
       x="1"
       y="2" />
    <rect
       style="fill:#4cb882;fill-opacity:0.71"
       id="rect38"
       width="1"
       height="1"
       x="1"
       y="3" />
    <rect
       style="fill:#d3e924;fill-opacity:0.5"
       id="rect40"
       width="1"
       height="1"
       x="2"
       y="0" />
    <rect
       style="fill:#89cc38;fill-opacity:0.88"
       id="rect42"
       width="1"
       height="1"
       x="2"
       y="1" />
    <rect
       style="fill:#89cc38;fill-opacity:0.88"
       id="rect44"
       width="1"
       height="1"
       x="2"
       y="2" />
    <rect
       style="fill:#76c44e;fill-opacity:0.82"
       id="rect46"
       width="1"
       height="1"
       x="2"
       y="3" />
    <rect
       style="fill:#eef506;fill-opacity:0.52"
       id="rect48"
       width="1"
       height="1"
       x="3"
       y="0" />
    <rect
       style="fill:#97d02b;fill-opacity:0.8"
       id="rect50"
       width="1"
       height="1"
       x="3"
       y="1" />
    <rect
       style="fill:#8ecd34;fill-opacity:0.84"
       id="rect52"
       width="1"
       height="1"
       x="3"
       y="2" />
    <rect
       style="fill:#8bc932;fill-opacity:0.75"
       id="rect54"
       width="1"
       height="1"
       x="3"
       y="3" />
    <rect
       style="fill:#ffff00;fill-opacity:0.23"
       id="rect56"
       width="1"
       height="1"
       x="4"
       y="0" />
    <rect
       style="fill:#deee0c;fill-opacity:0.57"
       id="rect58"
       width="1"
       height="1"
       x="4"
       y="1" />
    <rect
       style="fill:#bcdb16;fill-opacity:0.64"
       id="rect60"
       width="1"
       height="1"
       x="4"
       y="2" />
    <rect
       style="fill:#9ccd1c;fill-opacity:0.28"
       id="rect62"
       width="1"
       height="1"
       x="4"
       y="3" />
  </g>
  <g
     id="t2"
     transform="translate(0,4)">
    <rect
       style="fill-opacity:0.004"
       id="rect65"
       width="1"
       height="1"
       x="0"
       y="0" />
    <rect
       style="fill:#00aff2;fill-opacity:0.31"
       id="rect67"
       width="1"
       height="1"
       x="0"
       y="1" />
    <rect
       style="fill:#16b2e5;fill-opacity:0.5"
       id="rect69"
       width="1"
       height="1"
       x="0"
       y="2" />
    <rect
       style="fill:#03b1ee;fill-opacity:0.36"
       id="rect71"
       width="1"
       height="1"
       x="0"
       y="3" />
    <rect
       style="fill:#82d0b2;fill-opacity:0.17"
       id="rect73"
       width="1"
       height="1"
       x="1"
       y="0" />
    <rect
       style="fill:#76c57c;fill-opacity:0.75"
       id="rect75"
       width="1"
       height="1"
       x="1"
       y="1" />
    <rect
       style="fill:#72c253;fill-opacity:0.82"
       id="rect77"
       width="1"
       height="1"
       x="1"
       y="2" />
    <rect
       style="fill:#4cb882;fill-opacity:0.71"
       id="rect79"
       width="1"
       height="1"
       x="1"
       y="3" />
    <rect
       style="fill:#d3e924;fill-opacity:0.5"
       id="rect81"
       width="1"
       height="1"
       x="2"
       y="0" />
    <rect
       style="fill:#89cc38;fill-opacity:0.88"
       id="rect83"
       width="1"
       height="1"
       x="2"
       y="1" />
    <rect
       style="fill:#89cc38;fill-opacity:0.88"
       id="rect85"
       width="1"
       height="1"
       x="2"
       y="2" />
    <rect
       style="fill:#76c44e;fill-opacity:0.82"
       id="rect87"
       width="1"
       height="1"
       x="2"
       y="3" />
    <rect
       style="fill:#eef506;fill-opacity:0.52"
       id="rect89"
       width="1"
       height="1"
       x="3"
       y="0" />
    <rect
       style="fill:#97d02b;fill-opacity:0.8"
       id="rect91"
       width="1"
       height="1"
       x="3"
       y="1" />
    <rect
       style="fill:#8ecd34;fill-opacity:0.84"
       id="rect93"
       width="1"
       height="1"
       x="3"
       y="2" />
    <rect
       style="fill:#8bc932;fill-opacity:0.75"
       id="rect95"
       width="1"
       height="1"
       x="3"
       y="3" />
    <rect
       style="fill:#ffff00;fill-opacity:0.23"
       id="rect97"
       width="1"
       height="1"
       x="4"
       y="0" />
    <rect
       style="fill:#deee0c;fill-opacity:0.57"
       id="rect99"
       width="1"
       height="1"
       x="4"
       y="1" />
    <rect
       style="fill:#bcdb16;fill-opacity:0.64"
       id="rect101"
       width="1"
       height="1"
       x="4"
       y="2" />
    <rect
       style="fill:#9ccd1c;fill-opacity:0.28"
       id="rect103"
       width="1"
       height="1"
       x="4"
       y="3" />
  </g>
  <g
     id="t3"
     transform="translate(5,4)">
    <rect
       style="fill-opacity:0.004"
       id="rect106"
       width="1"
       height="1"
       x="0"
       y="0" />
    <rect
       style="fill:#00aff2;fill-opacity:0.31"
       id="rect108"
       width="1"
       height="1"
       x="0"
       y="1" />
    <rect
       style="fill:#16b2e5;fill-opacity:0.5"
       id="rect110"
       width="1"
       height="1"
       x="0"
       y="2" />
    <rect
       style="fill:#03b1ee;fill-opacity:0.36"
       id="rect112"
       width="1"
       height="1"
       x="0"
       y="3" />
    <rect
       style="fill:#82d0b2;fill-opacity:0.17"
       id="rect114"
       width="1"
       height="1"
       x="1"
       y="0" />
    <rect
       style="fill:#76c57c;fill-opacity:0.75"
       id="rect116"
       width="1"
       height="1"
       x="1"
       y="1" />
    <rect
       style="fill:#72c253;fill-opacity:0.82"
       id="rect118"
       width="1"
       height="1"
       x="1"
       y="2" />
    <rect
       style="fill:#4cb882;fill-opacity:0.71"
       id="rect120"
       width="1"
       height="1"
       x="1"
       y="3" />
    <rect
       style="fill:#d3e924;fill-opacity:0.5"
       id="rect122"
       width="1"
       height="1"
       x="2"
       y="0" />
    <rect
       style="fill:#89cc38;fill-opacity:0.88"
       id="rect124"
       width="1"
       height="1"
       x="2"
       y="1" />
    <rect
       style="fill:#89cc38;fill-opacity:0.88"
       id="rect126"
       width="1"
       height="1"
       x="2"
       y="2" />
    <rect
       style="fill:#76c44e;fill-opacity:0.82"
       id="rect128"
       width="1"
       height="1"
       x="2"
       y="3" />
    <rect
       style="fill:#eef506;fill-opacity:0.52"
       id="rect130"
       width="1"
       height="1"
       x="3"
       y="0" />
    <rect
       style="fill:#97d02b;fill-opacity:0.8"
       id="rect132"
       width="1"
       height="1"
       x="3"
       y="1" />
    <rect
       style="fill:#8ecd34;fill-opacity:0.84"
       id="rect134"
       width="1"
       height="1"
       x="3"
       y="2" />
    <rect
       style="fill:#8bc932;fill-opacity:0.75"
       id="rect136"
       width="1"
       height="1"
       x="3"
       y="3" />
    <rect
       style="fill:#ffff00;fill-opacity:0.23"
       id="rect138"
       width="1"
       height="1"
       x="4"
       y="0" />
    <rect
       style="fill:#deee0c;fill-opacity:0.57"
       id="rect140"
       width="1"
       height="1"
       x="4"
       y="1" />
    <rect
       style="fill:#bcdb16;fill-opacity:0.64"
       id="rect142"
       width="1"
       height="1"
       x="4"
       y="2" />
    <rect
       style="fill:#9ccd1c;fill-opacity:0.28"
       id="rect144"
       width="1"
       height="1"
       x="4"
       y="3" />
  </g>
  <g
     id="t4"
     transform="translate(0,8)">
    <rect
       style="fill-opacity:0.004"
       id="rect147"
       width="1"
       height="1"
       x="0"
       y="0" />
    <rect
       style="fill:#00aff2;fill-opacity:0.31"
       id="rect149"
       width="1"
       height="1"
       x="0"
       y="1" />
    <rect
       style="fill:#16b2e5;fill-opacity:0.5"
       id="rect151"
       width="1"
       height="1"
       x="0"
       y="2" />
    <rect
       style="fill:#03b1ee;fill-opacity:0.36"
       id="rect153"
       width="1"
       height="1"
       x="0"
       y="3" />
    <rect
       style="fill:#82d0b2;fill-opacity:0.17"
       id="rect155"
       width="1"
       height="1"
       x="1"
       y="0" />
    <rect
       style="fill:#76c57c;fill-opacity:0.75"
       id="rect157"
       width="1"
       height="1"
       x="1"
       y="1" />
    <rect
       style="fill:#72c253;fill-opacity:0.82"
       id="rect159"
       width="1"
       height="1"
       x="1"
       y="2" />
    <rect
       style="fill:#4cb882;fill-opacity:0.71"
       id="rect161"
       width="1"
       height="1"
       x="1"
       y="3" />
    <rect
       style="fill:#d3e924;fill-opacity:0.5"
       id="rect163"
       width="1"
       height="1"
       x="2"
       y="0" />
    <rect
       style="fill:#89cc38;fill-opacity:0.88"
       id="rect165"
       width="1"
       height="1"
       x="2"
       y="1" />
    <rect
       style="fill:#89cc38;fill-opacity:0.88"
       id="rect167"
       width="1"
       height="1"
       x="2"
       y="2" />
    <rect
       style="fill:#76c44e;fill-opacity:0.82"
       id="rect169"
       width="1"
       height="1"
       x="2"
       y="3" />
    <rect
       style="fill:#eef506;fill-opacity:0.52"
       id="rect171"
       width="1"
       height="1"
       x="3"
       y="0" />
    <rect
       style="fill:#97d02b;fill-opacity:0.8"
       id="rect173"
       width="1"
       height="1"
       x="3"
       y="1" />
    <rect
       style="fill:#8ecd34;fill-opacity:0.84"
       id="rect175"
       width="1"
       height="1"
       x="3"
       y="2" />
    <rect
       style="fill:#8bc932;fill-opacity:0.75"
       id="rect177"
       width="1"
       height="1"
       x="3"
       y="3" />
    <rect
       style="fill:#ffff00;fill-opacity:0.23"
       id="rect179"
       width="1"
       height="1"
       x="4"
       y="0" />
    <rect
       style="fill:#deee0c;fill-opacity:0.57"
       id="rect181"
       width="1"
       height="1"
       x="4"
       y="1" />
    <rect
       style="fill:#bcdb16;fill-opacity:0.64"
       id="rect183"
       width="1"
       height="1"
       x="4"
       y="2" />
    <rect
       style="fill:#9ccd1c;fill-opacity:0.28"
       id="rect185"
       width="1"
       height="1"
       x="4"
       y="3" />
  </g>
  <g
     id="t5"
     transform="translate(5,8)">
    <rect
       style="fill-opacity:0.004"
       id="rect188"
       width="1"
       height="1"
       x="0"
       y="0" />
    <rect
       style="fill:#00aff2;fill-opacity:0.31"
       id="rect190"
       width="1"
       height="1"
       x="0"
       y="1" />
    <rect
       style="fill:#16b2e5;fill-opacity:0.5"
       id="rect192"
       width="1"
       height="1"
       x="0"
       y="2" />
    <rect
       style="fill:#03b1ee;fill-opacity:0.36"
       id="rect194"
       width="1"
       height="1"
       x="0"
       y="3" />
    <rect
       style="fill:#82d0b2;fill-opacity:0.17"
       id="rect196"
       width="1"
       height="1"
       x="1"
       y="0" />
    <rect
       style="fill:#76c57c;fill-opacity:0.75"
       id="rect198"
       width="1"
       height="1"
       x="1"
       y="1" />
    <rect
       style="fill:#72c253;fill-opacity:0.82"
       id="rect200"
       width="1"
       height="1"
       x="1"
       y="2" />
    <rect
       style="fill:#4cb882;fill-opacity:0.71"
       id="rect202"
       width="1"
       height="1"
       x="1"
       y="3" />
    <rect
       style="fill:#d3e924;fill-opacity:0.5"
       id="rect204"
       width="1"
       height="1"
       x="2"
       y="0" />
    <rect
       style="fill:#89cc38;fill-opacity:0.88"
       id="rect206"
       width="1"
       height="1"
       x="2"
       y="1" />
    <rect
       style="fill:#89cc38;fill-opacity:0.88"
       id="rect208"
       width="1"
       height="1"
       x="2"
       y="2" />
    <rect
       style="fill:#76c44e;fill-opacity:0.82"
       id="rect210"
       width="1"
       height="1"
       x="2"
       y="3" />
    <rect
       style="fill:#eef506;fill-opacity:0.52"
       id="rect212"
       width="1"
       height="1"
       x="3"
       y="0" />
    <rect
       style="fill:#97d02b;fill-opacity:0.8"
       id="rect214"
       width="1"
       height="1"
       x="3"
       y="1" />
    <rect
       style="fill:#8ecd34;fill-opacity:0.84"
       id="rect216"
       width="1"
       height="1"
       x="3"
       y="2" />
    <rect
       style="fill:#8bc932;fill-opacity:0.75"
       id="rect218"
       width="1"
       height="1"
       x="3"
       y="3" />
    <rect
       style="fill:#ffff00;fill-opacity:0.23"
       id="rect220"
       width="1"
       height="1"
       x="4"
       y="0" />
    <rect
       style="fill:#deee0c;fill-opacity:0.57"
       id="rect222"
       width="1"
       height="1"
       x="4"
       y="1" />
    <rect
       style="fill:#bcdb16;fill-opacity:0.64"
       id="rect224"
       width="1"
       height="1"
       x="4"
       y="2" />
    <rect
       style="fill:#9ccd1c;fill-opacity:0.28"
       id="rect226"
       width="1"
       height="1"
       x="4"
       y="3" />
  </g>
  <g
     id="t6"
     transform="translate(0,12)">
    <rect
       style="fill-opacity:0.004"
       id="rect229"
       width="1"
       height="1"
       x="0"
       y="0" />
    <rect
       style="fill:#00aff2;fill-opacity:0.31"
       id="rect231"
       width="1"
       height="1"
       x="0"
       y="1" />
    <rect
       style="fill:#16b2e5;fill-opacity:0.5"
       id="rect233"
       width="1"
       height="1"
       x="0"
       y="2" />
    <rect
       style="fill:#03b1ee;fill-opacity:0.36"
       id="rect235"
       width="1"
       height="1"
       x="0"
       y="3" />
    <rect
       style="fill:#82d0b2;fill-opacity:0.17"
       id="rect237"
       width="1"
       height="1"
       x="1"
       y="0" />
    <rect
       style="fill:#76c57c;fill-opacity:0.75"
       id="rect239"
       width="1"
       height="1"
       x="1"
       y="1" />
    <rect
       style="fill:#72c253;fill-opacity:0.82"
       id="rect241"
       width="1"
       height="1"
       x="1"
       y="2" />
    <rect
       style="fill:#4cb882;fill-opacity:0.71"
       id="rect243"
       width="1"
       height="1"
       x="1"
       y="3" />
    <rect
       style="fill:#d3e924;fill-opacity:0.5"
       id="rect245"
       width="1"
       height="1"
       x="2"
       y="0" />
    <rect
       style="fill:#89cc38;fill-opacity:0.88"
       id="rect247"
       width="1"
       height="1"
       x="2"
       y="1" />
    <rect
       style="fill:#89cc38;fill-opacity:0.88"
       id="rect249"
       width="1"
       height="1"
       x="2"
       y="2" />
    <rect
       style="fill:#76c44e;fill-opacity:0.82"
       id="rect251"
       width="1"
       height="1"
       x="2"
       y="3" />
    <rect
       style="fill:#eef506;fill-opacity:0.52"
       id="rect253"
       width="1"
       height="1"
       x="3"
       y="0" />
    <rect
       style="fill:#97d02b;fill-opacity:0.8"
       id="rect255"
       width="1"
       height="1"
       x="3"
       y="1" />
    <rect
       style="fill:#8ecd34;fill-opacity:0.84"
       id="rect257"
       width="1"
       height="1"
       x="3"
       y="2" />
    <rect
       style="fill:#8bc932;fill-opacity:0.75"
       id="rect259"
       width="1"
       height="1"
       x="3"
       y="3" />
    <rect
       style="fill:#ffff00;fill-opacity:0.23"
       id="rect261"
       width="1"
       height="1"
       x="4"
       y="0" />
    <rect
       style="fill:#deee0c;fill-opacity:0.57"
       id="rect263"
       width="1"
       height="1"
       x="4"
       y="1" />
    <rect
       style="fill:#bcdb16;fill-opacity:0.64"
       id="rect265"
       width="1"
       height="1"
       x="4"
       y="2" />
    <rect
       style="fill:#9ccd1c;fill-opacity:0.28"
       id="rect267"
       width="1"
       height="1"
       x="4"
       y="3" />
  </g>
  <g
     id="t7"
     transform="translate(5,12)">
    <rect
       style="fill-opacity:0.004"
       id="rect270"
       width="1"
       height="1"
       x="0"
       y="0" />
    <rect
       style="fill:#00aff2;fill-opacity:0.31"
       id="rect272"
       width="1"
       height="1"
       x="0"
       y="1" />
    <rect
       style="fill:#16b2e5;fill-opacity:0.5"
       id="rect274"
       width="1"
       height="1"
       x="0"
       y="2" />
    <rect
       style="fill:#03b1ee;fill-opacity:0.36"
       id="rect276"
       width="1"
       height="1"
       x="0"
       y="3" />
    <rect
       style="fill:#82d0b2;fill-opacity:0.17"
       id="rect278"
       width="1"
       height="1"
       x="1"
       y="0" />
    <rect
       style="fill:#76c57c;fill-opacity:0.75"
       id="rect280"
       width="1"
       height="1"
       x="1"
       y="1" />
    <rect
       style="fill:#72c253;fill-opacity:0.82"
       id="rect282"
       width="1"
       height="1"
       x="1"
       y="2" />
    <rect
       style="fill:#4cb882;fill-opacity:0.71"
       id="rect284"
       width="1"
       height="1"
       x="1"
       y="3" />
    <rect
       style="fill:#d3e924;fill-opacity:0.5"
       id="rect286"
       width="1"
       height="1"
       x="2"
       y="0" />
    <rect
       style="fill:#89cc38;fill-opacity:0.88"
       id="rect288"
       width="1"
       height="1"
       x="2"
       y="1" />
    <rect
       style="fill:#89cc38;fill-opacity:0.88"
       id="rect290"
       width="1"
       height="1"
       x="2"
       y="2" />
    <rect
       style="fill:#76c44e;fill-opacity:0.82"
       id="rect292"
       width="1"
       height="1"
       x="2"
       y="3" />
    <rect
       style="fill:#eef506;fill-opacity:0.52"
       id="rect294"
       width="1"
       height="1"
       x="3"
       y="0" />
    <rect
       style="fill:#97d02b;fill-opacity:0.8"
       id="rect296"
       width="1"
       height="1"
       x="3"
       y="1" />
    <rect
       style="fill:#8ecd34;fill-opacity:0.84"
       id="rect298"
       width="1"
       height="1"
       x="3"
       y="2" />
    <rect
       style="fill:#8bc932;fill-opacity:0.75"
       id="rect300"
       width="1"
       height="1"
       x="3"
       y="3" />
    <rect
       style="fill:#ffff00;fill-opacity:0.23"
       id="rect302"
       width="1"
       height="1"
       x="4"
       y="0" />
    <rect
       style="fill:#deee0c;fill-opacity:0.57"
       id="rect304"
       width="1"
       height="1"
       x="4"
       y="1" />
    <rect
       style="fill:#bcdb16;fill-opacity:0.64"
       id="rect306"
       width="1"
       height="1"
       x="4"
       y="2" />
    <rect
       style="fill:#9ccd1c;fill-opacity:0.28"
       id="rect308"
       width="1"
       height="1"
       x="4"
       y="3" />
  </g>
  <g
     id="t8"
     transform="translate(0,16)">
    <rect
       style="fill-opacity:0.004"
       id="rect311"
       width="1"
       height="1"
       x="0"
       y="0" />
    <rect
       style="fill:#00aff2;fill-opacity:0.31"
       id="rect313"
       width="1"
       height="1"
       x="0"
       y="1" />
    <rect
       style="fill:#16b2e5;fill-opacity:0.5"
       id="rect315"
       width="1"
       height="1"
       x="0"
       y="2" />
    <rect
       style="fill:#03b1ee;fill-opacity:0.36"
       id="rect317"
       width="1"
       height="1"
       x="0"
       y="3" />
    <rect
       style="fill:#82d0b2;fill-opacity:0.17"
       id="rect319"
       width="1"
       height="1"
       x="1"
       y="0" />
    <rect
       style="fill:#76c57c;fill-opacity:0.75"
       id="rect321"
       width="1"
       height="1"
       x="1"
       y="1" />
    <rect
       style="fill:#72c253;fill-opacity:0.82"
       id="rect323"
       width="1"
       height="1"
       x="1"
       y="2" />
    <rect
       style="fill:#4cb882;fill-opacity:0.71"
       id="rect325"
       width="1"
       height="1"
       x="1"
       y="3" />
    <rect
       style="fill:#d3e924;fill-opacity:0.5"
       id="rect327"
       width="1"
       height="1"
       x="2"
       y="0" />
    <rect
       style="fill:#89cc38;fill-opacity:0.88"
       id="rect329"
       width="1"
       height="1"
       x="2"
       y="1" />
    <rect
       style="fill:#89cc38;fill-opacity:0.88"
       id="rect331"
       width="1"
       height="1"
       x="2"
       y="2" />
    <rect
       style="fill:#76c44e;fill-opacity:0.82"
       id="rect333"
       width="1"
       height="1"
       x="2"
       y="3" />
    <rect
       style="fill:#eef506;fill-opacity:0.52"
       id="rect335"
       width="1"
       height="1"
       x="3"
       y="0" />
    <rect
       style="fill:#97d02b;fill-opacity:0.8"
       id="rect337"
       width="1"
       height="1"
       x="3"
       y="1" />
    <rect
       style="fill:#8ecd34;fill-opacity:0.84"
       id="rect339"
       width="1"
       height="1"
       x="3"
       y="2" />
    <rect
       style="fill:#8bc932;fill-opacity:0.75"
       id="rect341"
       width="1"
       height="1"
       x="3"
       y="3" />
    <rect
       style="fill:#ffff00;fill-opacity:0.23"
       id="rect343"
       width="1"
       height="1"
       x="4"
       y="0" />
    <rect
       style="fill:#deee0c;fill-opacity:0.57"
       id="rect345"
       width="1"
       height="1"
       x="4"
       y="1" />
    <rect
       style="fill:#bcdb16;fill-opacity:0.64"
       id="rect347"
       width="1"
       height="1"
       x="4"
       y="2" />
    <rect
       style="fill:#9ccd1c;fill-opacity:0.28"
       id="rect349"
       width="1"
       height="1"
       x="4"
       y="3" />
  </g>
  <g
     id="t9"
     transform="translate(5,16)">
    <rect
       style="fill-opacity:0.004"
       id="rect352"
       width="1"
       height="1"
       x="0"
       y="0" />
    <rect
       style="fill:#00aff2;fill-opacity:0.31"
       id="rect354"
       width="1"
       height="1"
       x="0"
       y="1" />
    <rect
       style="fill:#16b2e5;fill-opacity:0.5"
       id="rect356"
       width="1"
       height="1"
       x="0"
       y="2" />
    <rect
       style="fill:#03b1ee;fill-opacity:0.36"
       id="rect358"
       width="1"
       height="1"
       x="0"
       y="3" />
    <rect
       style="fill:#82d0b2;fill-opacity:0.17"
       id="rect360"
       width="1"
       height="1"
       x="1"
       y="0" />
    <rect
       style="fill:#76c57c;fill-opacity:0.75"
       id="rect362"
       width="1"
       height="1"
       x="1"
       y="1" />
    <rect
       style="fill:#72c253;fill-opacity:0.82"
       id="rect364"
       width="1"
       height="1"
       x="1"
       y="2" />
    <rect
       style="fill:#4cb882;fill-opacity:0.71"
       id="rect366"
       width="1"
       height="1"
       x="1"
       y="3" />
    <rect
       style="fill:#d3e924;fill-opacity:0.5"
       id="rect368"
       width="1"
       height="1"
       x="2"
       y="0" />
    <rect
       style="fill:#89cc38;fill-opacity:0.88"
       id="rect370"
       width="1"
       height="1"
       x="2"
       y="1" />
    <rect
       style="fill:#89cc38;fill-opacity:0.88"
       id="rect372"
       width="1"
       height="1"
       x="2"
       y="2" />
    <rect
       style="fill:#76c44e;fill-opacity:0.82"
       id="rect374"
       width="1"
       height="1"
       x="2"
       y="3" />
    <rect
       style="fill:#eef506;fill-opacity:0.52"
       id="rect376"
       width="1"
       height="1"
       x="3"
       y="0" />
    <rect
       style="fill:#97d02b;fill-opacity:0.8"
       id="rect378"
       width="1"
       height="1"
       x="3"
       y="1" />
    <rect
       style="fill:#8ecd34;fill-opacity:0.84"
       id="rect380"
       width="1"
       height="1"
       x="3"
       y="2" />
    <rect
       style="fill:#8bc932;fill-opacity:0.75"
       id="rect382"
       width="1"
       height="1"
       x="3"
       y="3" />
    <rect
       style="fill:#ffff00;fill-opacity:0.23"
       id="rect384"
       width="1"
       height="1"
       x="4"
       y="0" />
    <rect
       style="fill:#deee0c;fill-opacity:0.57"
       id="rect386"
       width="1"
       height="1"
       x="4"
       y="1" />
    <rect
       style="fill:#bcdb16;fill-opacity:0.64"
       id="rect388"
       width="1"
       height="1"
       x="4"
       y="2" />
    <rect
       style="fill:#9ccd1c;fill-opacity:0.28"
       id="rect390"
       width="1"
       height="1"
       x="4"
       y="3" />
  </g>
</svg>
