<?xml version="1.0" encoding="UTF-8" standalone="no"?>
<svg
   version="1.1"
   id="bgm"
   width="5"
   height="4"
   viewBox="0 0 5 4"
   xmlns="http://www.w3.org/2000/svg"
   xmlnsSvg="http://www.w3.org/2000/svg">
  <defs
     id="defs60" />
  <g
     id="main">
    <rect
       style="fill-opacity:0.004"
       id="1"
       width="1"
       height="1"
       x="0"
       y="0" />
    <rect
       style="fill:#00aff2;fill-opacity:0.31"
       id="2"
       width="1"
       height="1"
       x="0"
       y="1" />
    <rect
       style="fill:#16b2e5;fill-opacity:0.5"
       id="3"
       width="1"
       height="1"
       x="0"
       y="2" />
    <rect
       style="fill:#03b1ee;fill-opacity:0.36"
       id="4"
       width="1"
       height="1"
       x="0"
       y="3" />
    <rect
       style="fill:#82d0b2;fill-opacity:0.17"
       id="5"
       width="1"
       height="1"
       x="1"
       y="0" />
    <rect
       style="fill:#76c57c;fill-opacity:0.75"
       id="6"
       width="1"
       height="1"
       x="1"
       y="1" />
    <rect
       style="fill:#72c253;fill-opacity:0.82"
       id="7"
       width="1"
       height="1"
       x="1"
       y="2" />
    <rect
       style="fill:#4cb882;fill-opacity:0.71"
       id="8"
       width="1"
       height="1"
       x="1"
       y="3" />
    <rect
       style="fill:#d3e924;fill-opacity:0.5"
       id="9"
       width="1"
       height="1"
       x="2"
       y="0" />
    <rect
       style="fill:#89cc38;fill-opacity:0.88"
       id="10"
       width="1"
       height="1"
       x="2"
       y="1" />
    <rect
       style="fill:#89cc38;fill-opacity:0.88"
       id="11"
       width="1"
       height="1"
       x="2"
       y="2" />
    <rect
       style="fill:#76c44e;fill-opacity:0.82"
       id="12"
       width="1"
       height="1"
       x="2"
       y="3" />
    <rect
       style="fill:#eef506;fill-opacity:0.52"
       id="13"
       width="1"
       height="1"
       x="3"
       y="0" />
    <rect
       style="fill:#97d02b;fill-opacity:0.8"
       id="14"
       width="1"
       height="1"
       x="3"
       y="1" />
    <rect
       style="fill:#8ecd34;fill-opacity:0.84"
       id="15"
       width="1"
       height="1"
       x="3"
       y="2" />
    <rect
       style="fill:#8bc932;fill-opacity:0.75"
       id="16"
       width="1"
       height="1"
       x="3"
       y="3" />
    <rect
       style="fill:#ffff00;fill-opacity:0.23"
       id="17"
       width="1"
       height="1"
       x="4"
       y="0" />
    <rect
       style="fill:#deee0c;fill-opacity:0.57"
       id="18"
       width="1"
       height="1"
       x="4"
       y="1" />
    <rect
       style="fill:#bcdb16;fill-opacity:0.64"
       id="19"
       width="1"
       height="1"
       x="4"
       y="2" />
    <rect
       style="fill:#9ccd1c;fill-opacity:0.28"
       id="20"
       width="1"
       height="1"
       x="4"
       y="3" />
  </g>
</svg>
